<svg width="309" height="63" viewBox="0 0 309 63" fill="none" xmlns="http://www.w3.org/2000/svg">
<path d="M80.1228 32.759V9.86426H87.9059C93.0131 9.86426 95.6891 12.8901 95.6891 15.8634C95.6891 18.8368 93.7477 19.9736 92.7507 20.6907C94.3598 21.4078 96.6336 23.0519 96.6336 26.2176C96.6336 29.6282 93.8876 32.7415 88.4306 32.7415H80.1228V32.759ZM84.8451 19.3615H87.7135C89.6375 19.3615 90.8618 18.1721 90.8618 16.668C90.8618 15.1638 89.6724 13.992 87.696 13.992H84.8626V19.3615H84.8451ZM84.8451 28.6138H88.3957C90.5994 28.6138 91.7538 27.3895 91.7538 25.8678C91.7538 24.3462 90.4945 23.1743 88.3432 23.1743H84.8451V28.6138Z" fill="white"/>
<path d="M115.453 32.759L114.036 29.3659H104.469L103.053 32.759H97.7705L108.44 9.58447H110.136L120.805 32.759H115.436H115.453ZM106.201 25.2557H112.322L109.262 17.9798L106.201 25.2557Z" fill="white"/>
<path d="M141.793 32.759H136.022L129.83 24.3986H128.518V32.759H123.743V9.86426H130.914C136.354 9.86426 139.607 13.03 139.607 17.1752C139.607 20.201 137.771 22.6846 134.657 23.7865L141.793 32.759ZM128.518 14.0619V20.5158H130.879C133.486 20.5158 134.745 19.0641 134.745 17.2976C134.745 15.5311 133.521 14.0794 130.879 14.0794H128.518V14.0619Z" fill="white"/>
<path d="M143.105 21.3031C143.105 14.6043 148.387 9.32227 155.838 9.32227C159.511 9.32227 161.942 10.2667 163.674 11.1587V16.0735C161.347 14.6918 158.916 13.6773 155.838 13.6773C151.011 13.6773 148.055 16.7556 148.055 21.2856C148.055 25.8156 151.081 28.9638 155.611 28.9638C157.272 28.9638 158.497 28.6315 159.616 28.1593V24.4338H155.121V20.4286H164.181V30.8003C163.044 31.5174 160.088 33.3014 155.628 33.3014C148.405 33.3014 143.123 28.0018 143.123 21.3031H143.105Z" fill="white"/>
<path d="M168.973 32.759V9.86426H183.612V14.1669H173.783V18.9417H181.863V23.2268H173.783V28.4564H184.067V32.759H168.973Z" fill="white"/>
<path d="M205.895 32.759H200.123L193.932 24.3986H192.62V32.759H187.845V9.86426H195.016C200.456 9.86426 203.709 13.03 203.709 17.1752C203.709 20.201 201.872 22.6846 198.759 23.7865L205.895 32.759ZM192.603 14.0619V20.5158H194.964C197.57 20.5158 198.829 19.0641 198.829 17.2976C198.829 15.5311 197.605 14.0794 194.964 14.0794H192.603V14.0619Z" fill="white"/>
<path d="M208.169 31.3948V26.4801C210.495 27.8093 212.926 28.8762 215.585 28.8762C217.649 28.8762 218.715 27.8793 218.715 26.3751C218.715 24.5911 217.071 23.9615 214.273 23.1044C211.492 22.2124 208.029 20.4109 208.029 15.9859C208.029 11.8232 211.37 9.39209 215.9 9.39209C218.768 9.39209 221.042 10.0917 222.616 10.6689V15.5661C220.447 14.4293 217.998 13.7122 215.952 13.7122C214.011 13.7122 212.891 14.4818 212.891 15.9159C212.891 17.6125 214.5 18.2771 217.316 19.1342C220.097 20.0262 223.63 21.6353 223.63 26.2702C223.63 30.6602 219.747 33.2138 215.707 33.2138C212.699 33.2138 210.268 32.3743 208.169 31.4123V31.3948Z" fill="white"/>
<path d="M235.191 33.0388L225.152 9.86426H230.486L236.101 23.7865L241.715 9.86426H246.997L236.853 33.0388H235.191Z" fill="white"/>
<path d="M249.918 32.759V9.86426H254.728V32.759H249.918Z" fill="white"/>
<path d="M259.73 32.759V9.86426H264.54V28.4214H273.075V32.759H259.73Z" fill="white"/>
<path d="M276.818 32.759V9.86426H281.628V28.4214H290.163V32.759H276.818Z" fill="white"/>
<path d="M293.906 32.759V9.86426H308.545V14.1669H298.716V18.9417H306.796V23.2268H298.716V28.4564H309V32.759H293.906Z" fill="white"/>
<path d="M80.1228 43.061H87.1189V45.1599H82.3965V47.0838H86.8565V49.1826H82.3965V51.2814H87.3812V53.3803H80.1228V43.096V43.061Z" fill="white"/>
<path d="M97.543 45.7371C97.3156 45.4747 97.0533 45.2649 96.721 45.1075C96.3886 44.9675 96.0213 44.8976 95.6016 44.8976C95.1818 44.8976 94.7795 44.985 94.4123 45.1424C94.045 45.2998 93.7301 45.5447 93.4678 45.842C93.2054 46.1394 92.9955 46.4892 92.8381 46.8915C92.6807 47.2937 92.6108 47.7485 92.6108 48.2207C92.6108 48.693 92.6807 49.1477 92.8381 49.55C92.9955 49.9523 93.1879 50.3021 93.4503 50.5994C93.7126 50.8967 94.0275 51.1241 94.3773 51.299C94.7271 51.4564 95.1119 51.5439 95.5141 51.5439C95.9864 51.5439 96.3886 51.4389 96.7559 51.2465C97.1057 51.0541 97.4031 50.7743 97.6479 50.4245L99.5369 51.8412C99.0996 52.4534 98.5399 52.9081 97.8753 53.1879C97.2107 53.4678 96.5111 53.6252 95.8115 53.6252C95.0069 53.6252 94.2723 53.5028 93.5902 53.2404C92.9081 52.9956 92.3309 52.6283 91.8237 52.156C91.334 51.6838 90.9492 51.1241 90.6693 50.442C90.3895 49.7599 90.2496 49.0253 90.2496 48.2032C90.2496 47.3812 90.3895 46.6291 90.6693 45.9645C90.9492 45.2998 91.334 44.7227 91.8237 44.2504C92.3134 43.7782 92.9081 43.4284 93.5902 43.166C94.2723 42.9212 95.0069 42.7812 95.8115 42.7812C96.1088 42.7812 96.4061 42.8162 96.721 42.8687C97.0358 42.9212 97.3506 43.0086 97.6479 43.1311C97.9453 43.2535 98.2426 43.4109 98.5225 43.6033C98.8023 43.7957 99.0472 44.0405 99.2745 44.3204L97.5255 45.7371H97.543Z" fill="white"/>
<path d="M101.846 48.2032C101.846 47.3812 101.986 46.6291 102.265 45.9645C102.545 45.2998 102.93 44.7227 103.42 44.2504C103.909 43.7782 104.504 43.4284 105.186 43.166C105.868 42.9212 106.603 42.7812 107.408 42.7812C108.212 42.7812 108.947 42.9037 109.629 43.166C110.311 43.4284 110.888 43.7782 111.395 44.2504C111.885 44.7227 112.27 45.2824 112.55 45.9645C112.829 46.6291 112.969 47.3812 112.969 48.2032C112.969 49.0253 112.829 49.7773 112.55 50.442C112.27 51.1066 111.885 51.6838 111.395 52.156C110.906 52.6283 110.311 52.9956 109.629 53.2404C108.947 53.4853 108.212 53.6252 107.408 53.6252C106.603 53.6252 105.868 53.5028 105.186 53.2404C104.504 52.9956 103.927 52.6283 103.42 52.156C102.93 51.6838 102.545 51.1241 102.265 50.442C101.986 49.7599 101.846 49.0253 101.846 48.2032ZM104.207 48.2032C104.207 48.693 104.277 49.1302 104.434 49.5325C104.592 49.9348 104.801 50.2846 105.081 50.5819C105.361 50.8792 105.693 51.1066 106.096 51.2815C106.498 51.4564 106.935 51.5264 107.408 51.5264C107.88 51.5264 108.334 51.4389 108.719 51.2815C109.104 51.1241 109.454 50.8792 109.734 50.5819C110.014 50.2846 110.223 49.9348 110.381 49.5325C110.538 49.1302 110.608 48.693 110.608 48.2032C110.608 47.7135 110.538 47.2937 110.381 46.874C110.223 46.4717 110.014 46.1219 109.734 45.8246C109.454 45.5272 109.122 45.2998 108.719 45.1249C108.334 44.9675 107.88 44.8801 107.408 44.8801C106.935 44.8801 106.481 44.9675 106.096 45.1249C105.711 45.2824 105.361 45.5272 105.081 45.8246C104.801 46.1219 104.592 46.4717 104.434 46.874C104.277 47.2762 104.207 47.731 104.207 48.2032Z" fill="white"/>
<path d="M116.135 43.061H119.213L123.586 50.2145H123.621V43.061H125.895V53.3453H122.921L118.426 46.0169H118.391V53.3453H116.118V43.061H116.135Z" fill="white"/>
<path d="M129.06 48.2032C129.06 47.3812 129.2 46.6291 129.48 45.9645C129.76 45.2998 130.145 44.7227 130.635 44.2504C131.124 43.7782 131.719 43.4284 132.401 43.166C133.083 42.9212 133.818 42.7812 134.622 42.7812C135.427 42.7812 136.161 42.9037 136.844 43.166C137.526 43.4284 138.103 43.7782 138.61 44.2504C139.1 44.7227 139.485 45.2824 139.764 45.9645C140.044 46.6291 140.184 47.3812 140.184 48.2032C140.184 49.0253 140.044 49.7773 139.764 50.442C139.485 51.1066 139.1 51.6838 138.61 52.156C138.12 52.6283 137.526 52.9956 136.844 53.2404C136.161 53.4853 135.427 53.6252 134.622 53.6252C133.818 53.6252 133.083 53.5028 132.401 53.2404C131.719 52.9956 131.142 52.6283 130.635 52.156C130.145 51.6838 129.76 51.1241 129.48 50.442C129.2 49.7599 129.06 49.0253 129.06 48.2032ZM131.404 48.2032C131.404 48.693 131.474 49.1302 131.631 49.5325C131.789 49.9348 131.999 50.2846 132.279 50.5819C132.558 50.8792 132.891 51.1066 133.293 51.2815C133.695 51.4564 134.133 51.5264 134.605 51.5264C135.077 51.5264 135.532 51.4389 135.917 51.2815C136.301 51.1241 136.651 50.8792 136.931 50.5819C137.211 50.2846 137.421 49.9348 137.578 49.5325C137.736 49.1302 137.806 48.693 137.806 48.2032C137.806 47.7135 137.736 47.2937 137.578 46.874C137.421 46.4717 137.211 46.1219 136.931 45.8246C136.651 45.5272 136.319 45.2998 135.917 45.1249C135.532 44.9675 135.077 44.8801 134.605 44.8801C134.133 44.8801 133.678 44.9675 133.293 45.1249C132.908 45.2824 132.558 45.5272 132.279 45.8246C131.999 46.1219 131.789 46.4717 131.631 46.874C131.474 47.2762 131.404 47.731 131.404 48.2032Z" fill="white"/>
<path d="M143.332 43.061H146.761L149.122 49.7773H149.157L151.535 43.061H154.946V53.3453H152.672V45.4572H152.637L149.926 53.3453H148.195L145.589 45.4572H145.554V53.3453H143.28V43.061H143.332Z" fill="white"/>
<path d="M158.654 43.061H160.928V53.3453H158.654V43.061Z" fill="white"/>
<path d="M171.352 45.7371C171.124 45.4747 170.862 45.2649 170.53 45.1075C170.197 44.9675 169.83 44.8976 169.41 44.8976C168.991 44.8976 168.588 44.985 168.221 45.1424C167.854 45.2998 167.539 45.5447 167.277 45.842C167.014 46.1394 166.804 46.4892 166.647 46.8915C166.49 47.2937 166.42 47.7485 166.42 48.2207C166.42 48.693 166.49 49.1477 166.647 49.55C166.804 49.9523 166.997 50.3021 167.259 50.5994C167.521 50.8967 167.836 51.1241 168.186 51.299C168.536 51.4564 168.921 51.5439 169.323 51.5439C169.795 51.5439 170.197 51.4389 170.565 51.2465C170.915 51.0541 171.212 50.7743 171.457 50.4245L173.346 51.8412C172.908 52.4534 172.349 52.9081 171.684 53.1879C171.02 53.4678 170.32 53.6252 169.62 53.6252C168.816 53.6252 168.081 53.5028 167.399 53.2404C166.717 52.9956 166.14 52.6283 165.633 52.156C165.143 51.6838 164.758 51.1241 164.478 50.442C164.198 49.7599 164.058 49.0253 164.058 48.2032C164.058 47.3812 164.198 46.6291 164.478 45.9645C164.758 45.2998 165.143 44.7227 165.633 44.2504C166.122 43.7782 166.717 43.4284 167.399 43.166C168.081 42.9212 168.816 42.7812 169.62 42.7812C169.918 42.7812 170.215 42.8162 170.53 42.8687C170.845 42.9212 171.159 43.0086 171.457 43.1311C171.754 43.2535 172.051 43.4109 172.331 43.6033C172.611 43.7957 172.856 44.0405 173.083 44.3204L171.334 45.7371H171.352Z" fill="white"/>
<path d="M182.126 43.061H185.536C186.359 43.061 187.146 43.1485 187.88 43.3409C188.615 43.5333 189.262 43.8306 189.822 44.2329C190.381 44.6352 190.819 45.1774 191.133 45.842C191.466 46.5066 191.623 47.2937 191.623 48.2381C191.623 49.0777 191.466 49.8123 191.151 50.4419C190.836 51.0716 190.416 51.6138 189.874 52.0335C189.349 52.4708 188.72 52.7856 188.02 53.013C187.32 53.2404 186.586 53.3453 185.816 53.3453H182.108V43.061H182.126ZM184.4 51.264H185.571C186.096 51.264 186.586 51.2115 187.041 51.1065C187.495 51.0016 187.88 50.8267 188.212 50.5818C188.545 50.337 188.807 50.0047 188.982 49.6024C189.174 49.2001 189.262 48.7104 189.262 48.1332C189.262 47.626 189.174 47.1887 188.982 46.8214C188.79 46.4541 188.545 46.1393 188.212 45.8945C187.898 45.6496 187.513 45.4747 187.093 45.3523C186.673 45.2298 186.201 45.1774 185.729 45.1774H184.4V51.2814V51.264Z" fill="white"/>
<path d="M194.876 43.061H201.872V45.1599H197.15V47.0838H201.61V49.1826H197.15V51.2814H202.135V53.3803H194.876V43.096V43.061Z" fill="white"/>
<path d="M204.566 43.061H207.154L209.69 49.8123H209.725L212.314 43.061H214.745L210.495 53.3453H208.676L204.566 43.061Z" fill="white"/>
<path d="M217.526 43.061H224.522V45.1599H219.8V47.0838H224.26V49.1826H219.8V51.2814H224.785V53.3803H217.526V43.096V43.061Z" fill="white"/>
<path d="M228.318 43.061H230.591V51.264H234.789V53.3628H228.318V43.0785V43.061Z" fill="white"/>
<path d="M237.115 48.2032C237.115 47.3812 237.255 46.6291 237.535 45.9645C237.815 45.2998 238.2 44.7227 238.689 44.2504C239.179 43.7782 239.774 43.4284 240.456 43.166C241.138 42.9212 241.873 42.7812 242.677 42.7812C243.482 42.7812 244.216 42.9037 244.898 43.166C245.58 43.4284 246.158 43.7782 246.665 44.2504C247.155 44.7227 247.539 45.2824 247.819 45.9645C248.099 46.6291 248.239 47.3812 248.239 48.2032C248.239 49.0253 248.099 49.7773 247.819 50.442C247.539 51.1066 247.155 51.6838 246.665 52.156C246.175 52.6283 245.58 52.9956 244.898 53.2404C244.216 53.4853 243.482 53.6252 242.677 53.6252C241.873 53.6252 241.138 53.5028 240.456 53.2404C239.774 52.9956 239.197 52.6283 238.689 52.156C238.2 51.6838 237.815 51.1241 237.535 50.442C237.255 49.7599 237.115 49.0253 237.115 48.2032ZM239.476 48.2032C239.476 48.693 239.546 49.1302 239.704 49.5325C239.861 49.9348 240.071 50.2846 240.351 50.5819C240.631 50.8792 240.963 51.1066 241.365 51.2815C241.768 51.4564 242.205 51.5264 242.677 51.5264C243.149 51.5264 243.604 51.4389 243.989 51.2815C244.374 51.1241 244.723 50.8792 245.003 50.5819C245.283 50.2846 245.493 49.9348 245.65 49.5325C245.808 49.1302 245.878 48.693 245.878 48.2032C245.878 47.7135 245.808 47.2937 245.65 46.874C245.493 46.4717 245.283 46.1219 245.003 45.8246C244.723 45.5272 244.391 45.2998 243.989 45.1249C243.604 44.9675 243.149 44.8801 242.677 44.8801C242.205 44.8801 241.75 44.9675 241.365 45.1249C240.981 45.2824 240.631 45.5272 240.351 45.8246C240.071 46.1219 239.861 46.4717 239.704 46.874C239.546 47.2762 239.476 47.731 239.476 48.2032Z" fill="white"/>
<path d="M251.387 43.061H255.218C255.742 43.061 256.249 43.1135 256.722 43.201C257.194 43.2884 257.614 43.4633 257.964 43.7082C258.313 43.953 258.593 44.2679 258.803 44.6701C259.013 45.0724 259.118 45.5796 259.118 46.1918C259.118 46.8039 259.013 47.2937 258.821 47.6959C258.628 48.0982 258.366 48.4305 258.016 48.6754C257.684 48.9203 257.281 49.0952 256.809 49.2001C256.337 49.305 255.847 49.3575 255.305 49.3575H253.643V53.3628H251.37V43.0785L251.387 43.061ZM253.661 47.4161H255.165C255.375 47.4161 255.567 47.3986 255.76 47.3636C255.952 47.3287 256.11 47.2587 256.267 47.1712C256.424 47.0838 256.547 46.9614 256.634 46.7865C256.722 46.629 256.774 46.4192 256.774 46.1743C256.774 45.9119 256.722 45.7021 256.599 45.5446C256.477 45.3872 256.319 45.2648 256.127 45.1774C255.935 45.0899 255.725 45.0374 255.497 45.0024C255.27 44.985 255.043 44.9675 254.833 44.9675H253.678V47.4161H253.661Z" fill="white"/>
<path d="M262.179 43.061H265.607L267.968 49.7773H268.003L270.382 43.061H273.792V53.3453H271.518V45.4572H271.483L268.772 53.3453H267.041L264.435 45.4572H264.4V53.3453H262.126V43.061H262.179Z" fill="white"/>
<path d="M277.623 43.061H284.619V45.1599H279.896V47.0838H284.356V49.1826H279.896V51.2814H284.881V53.3803H277.623V43.096V43.061Z" fill="white"/>
<path d="M288.309 43.061H291.387L295.76 50.2145H295.795V43.061H298.069V53.3453H295.095L290.6 46.0169H290.565V53.3453H288.292V43.061H288.309Z" fill="white"/>
<path d="M303.788 45.0724H300.85V43.061H308.983V45.0724H306.044V53.3628H303.771V45.0724H303.788Z" fill="white"/>
<path d="M26.5327 36.1349C19.0119 33.5638 10.3018 31.8323 0 30.8179C0 31.0452 0 31.2551 0 31.4825C0 32.8292 0.0874512 34.141 0.262354 35.4528C7.32841 36.3448 13.9397 37.7265 20.0613 39.6155C22.0377 38.4436 24.189 37.2718 26.5677 36.1349H26.5327Z" fill="white"/>
<path d="M38.1637 41.207C37.0793 40.6298 35.9599 40.0526 34.7706 39.4754C33.7037 38.9507 32.5843 38.461 31.4649 37.9888C30.3281 38.461 29.2262 38.9507 28.1593 39.4754C26.97 40.0526 25.8506 40.6298 24.7662 41.207C27.0749 42.064 29.3136 42.991 31.4649 44.0054C33.6162 42.991 35.855 42.064 38.1637 41.207Z" fill="white"/>
<path d="M0.961945 39.3008C1.99387 43.3235 3.79536 47.0315 6.19153 50.2672C8.48275 47.906 11.631 45.1425 15.8286 42.2741C11.4036 41.0673 6.43639 40.0354 0.961945 39.3008Z" fill="white"/>
<path d="M62.685 35.4528C62.8424 34.1585 62.9473 32.8292 62.9473 31.4825C62.9473 31.2551 62.9473 31.0278 62.9473 30.8179C52.6281 31.8323 43.918 33.5813 36.4146 36.1349C38.7758 37.2718 40.9271 38.4436 42.921 39.6155C49.0251 37.7265 55.6539 36.3448 62.72 35.4528H62.685Z" fill="white"/>
<path d="M47.1012 42.2741C51.3163 45.1425 54.4471 47.906 56.7383 50.2672C59.1345 47.0315 60.9359 43.3235 61.9679 39.3008C56.4759 40.0354 51.5262 41.0673 47.1012 42.2741Z" fill="white"/>
<path d="M31.4649 33.9835C40.1051 30.5554 50.2669 28.3167 62.6325 27.1099C60.5162 11.7884 47.3635 0 31.4649 0C15.5663 0 2.41361 11.7884 0.297295 27.1099C12.6629 28.3167 22.8247 30.5554 31.4649 33.9835ZM31.4649 19.9913C37.3766 19.9913 42.3963 23.0346 44.4077 27.3198C39.7553 28.3867 35.4527 29.6634 31.4649 31.1851C27.4771 29.6634 23.1745 28.3867 18.5221 27.3198C20.5335 23.0346 25.5707 19.9913 31.4649 19.9913Z" fill="white"/>
<path d="M31.465 48.1333C23.9442 51.8762 18.9944 55.9165 16.0211 58.9073C20.586 61.4784 25.8506 62.965 31.465 62.965C37.0793 62.965 42.3439 61.4958 46.9088 58.9073C43.918 55.9165 38.9858 51.8762 31.465 48.1333Z" fill="white"/>
<path d="M27.1798 46.1744C25.116 45.2999 22.8947 44.4604 20.4986 43.6733C15.0241 47.0664 11.1938 50.4071 8.58772 53.1181C9.882 54.4823 11.2987 55.7416 12.8204 56.861C15.7587 53.8002 20.3587 49.8999 27.1624 46.1744H27.1798Z" fill="white"/>
<path d="M42.4313 43.6733C40.0352 44.4604 37.8139 45.2999 35.7501 46.1744C42.5538 49.8999 47.1537 53.8002 50.0921 56.861C51.6137 55.7416 53.0304 54.4823 54.3247 53.1181C51.7361 50.4071 47.8883 47.0664 42.4138 43.6733H42.4313Z" fill="white"/>
</svg>
