<svg width="309" height="63" viewBox="0 0 309 63" fill="none" xmlns="http://www.w3.org/2000/svg">
<path d="M80.1228 32.7592V9.8645H87.9059C93.0131 9.8645 95.6891 12.8903 95.6891 15.8637C95.6891 18.837 93.7477 19.9739 92.7507 20.691C94.3598 21.4081 96.6336 23.0521 96.6336 26.2179C96.6336 29.6285 93.8876 32.7417 88.4306 32.7417H80.1228V32.7592ZM84.8451 19.3617H87.7135C89.6375 19.3617 90.8618 18.1724 90.8618 16.6682C90.8618 15.164 89.6724 13.9922 87.696 13.9922H84.8626V19.3617H84.8451ZM84.8451 28.614H88.3957C90.5994 28.614 91.7538 27.3897 91.7538 25.8681C91.7538 24.3464 90.4945 23.1746 88.3432 23.1746H84.8451V28.614Z" fill="#003B71"/>
<path d="M115.453 32.7592L114.036 29.3661H104.469L103.053 32.7592H97.7705L108.44 9.58464H110.136L120.805 32.7592H115.436H115.453ZM106.201 25.2559H112.322L109.262 17.98L106.201 25.2559Z" fill="#003B71"/>
<path d="M141.793 32.7592H136.022L129.83 24.3989H128.518V32.7592H123.743V9.8645H130.914C136.354 9.8645 139.607 13.0302 139.607 17.1754C139.607 20.2012 137.771 22.6848 134.657 23.7867L141.793 32.7592ZM128.518 14.0622V20.5161H130.879C133.486 20.5161 134.745 19.0644 134.745 17.2979C134.745 15.5313 133.521 14.0797 130.879 14.0797H128.518V14.0622Z" fill="#003B71"/>
<path d="M143.105 21.3031C143.105 14.6044 148.387 9.3223 155.838 9.3223C159.511 9.3223 161.942 10.2668 163.674 11.1588V16.0735C161.347 14.6918 158.916 13.6774 155.838 13.6774C151.011 13.6774 148.055 16.7557 148.055 21.2856C148.055 25.8156 151.081 28.9638 155.611 28.9638C157.272 28.9638 158.497 28.6315 159.616 28.1593V24.4339H155.121V20.4286H164.181V30.8003C163.044 31.5174 160.088 33.3014 155.628 33.3014C148.405 33.3014 143.123 28.0019 143.123 21.3031H143.105Z" fill="#003B71"/>
<path d="M168.973 32.7592V9.8645H183.612V14.1671H173.783V18.9419H181.863V23.227H173.783V28.4566H184.067V32.7592H168.973Z" fill="#003B71"/>
<path d="M205.895 32.7592H200.123L193.932 24.3989H192.62V32.7592H187.845V9.8645H195.016C200.456 9.8645 203.709 13.0302 203.709 17.1754C203.709 20.2012 201.872 22.6848 198.759 23.7867L205.895 32.7592ZM192.603 14.0622V20.5161H194.964C197.57 20.5161 198.829 19.0644 198.829 17.2979C198.829 15.5313 197.605 14.0797 194.964 14.0797H192.603V14.0622Z" fill="#003B71"/>
<path d="M208.169 31.395V26.4802C210.495 27.8095 212.926 28.8764 215.585 28.8764C217.649 28.8764 218.715 27.8794 218.715 26.3753C218.715 24.5913 217.071 23.9616 214.273 23.1046C211.492 22.2126 208.029 20.4111 208.029 15.9861C208.029 11.8234 211.37 9.39225 215.9 9.39225C218.768 9.39225 221.042 10.0919 222.616 10.669V15.5663C220.447 14.4294 217.998 13.7123 215.952 13.7123C214.011 13.7123 212.891 14.4819 212.891 15.9161C212.891 17.6127 214.5 18.2773 217.316 19.1343C220.097 20.0263 223.63 21.6354 223.63 26.2703C223.63 30.6604 219.747 33.214 215.707 33.214C212.699 33.214 210.268 32.3744 208.169 31.4125V31.395Z" fill="#003B71"/>
<path d="M235.191 33.0391L225.152 9.8645H230.486L236.101 23.7867L241.715 9.8645H246.997L236.853 33.0391H235.191Z" fill="#003B71"/>
<path d="M249.918 32.7592V9.8645H254.728V32.7592H249.918Z" fill="#003B71"/>
<path d="M259.73 32.7592V9.8645H264.54V28.4216H273.075V32.7592H259.73Z" fill="#003B71"/>
<path d="M276.818 32.7592V9.8645H281.628V28.4216H290.163V32.7592H276.818Z" fill="#003B71"/>
<path d="M293.906 32.7592V9.8645H308.545V14.1671H298.716V18.9419H306.796V23.227H298.716V28.4566H309V32.7592H293.906Z" fill="#003B71"/>
<path d="M80.1228 43.061H87.1189V45.1598H82.3965V47.0837H86.8565V49.1826H82.3965V51.2814H87.3812V53.3802H80.1228V43.096V43.061Z" fill="#003B71"/>
<path d="M97.543 45.737C97.3156 45.4746 97.0533 45.2647 96.721 45.1073C96.3886 44.9674 96.0213 44.8974 95.6016 44.8974C95.1818 44.8974 94.7795 44.9849 94.4123 45.1423C94.045 45.2997 93.7301 45.5446 93.4678 45.8419C93.2054 46.1393 92.9955 46.4891 92.8381 46.8913C92.6807 47.2936 92.6108 47.7484 92.6108 48.2206C92.6108 48.6928 92.6807 49.1476 92.8381 49.5498C92.9955 49.9521 93.1879 50.3019 93.4503 50.5993C93.7126 50.8966 94.0275 51.124 94.3773 51.2989C94.7271 51.4563 95.1119 51.5437 95.5141 51.5437C95.9864 51.5437 96.3886 51.4388 96.7559 51.2464C97.1057 51.054 97.4031 50.7742 97.6479 50.4244L99.5369 51.8411C99.0996 52.4532 98.5399 52.908 97.8753 53.1878C97.2107 53.4677 96.5111 53.6251 95.8115 53.6251C95.0069 53.6251 94.2723 53.5026 93.5902 53.2403C92.9081 52.9954 92.3309 52.6281 91.8237 52.1559C91.334 51.6837 90.9492 51.124 90.6693 50.4419C90.3895 49.7597 90.2496 49.0251 90.2496 48.2031C90.2496 47.3811 90.3895 46.629 90.6693 45.9644C90.9492 45.2997 91.334 44.7225 91.8237 44.2503C92.3134 43.7781 92.9081 43.4283 93.5902 43.1659C94.2723 42.921 95.0069 42.7811 95.8115 42.7811C96.1088 42.7811 96.4061 42.8161 96.721 42.8686C97.0358 42.921 97.3506 43.0085 97.6479 43.1309C97.9453 43.2534 98.2426 43.4108 98.5225 43.6032C98.8023 43.7956 99.0472 44.0404 99.2745 44.3203L97.5255 45.737H97.543Z" fill="#003B71"/>
<path d="M101.846 48.2031C101.846 47.3811 101.986 46.629 102.265 45.9644C102.545 45.2997 102.93 44.7225 103.42 44.2503C103.909 43.7781 104.504 43.4283 105.186 43.1659C105.868 42.921 106.603 42.7811 107.408 42.7811C108.212 42.7811 108.947 42.9036 109.629 43.1659C110.311 43.4283 110.888 43.7781 111.395 44.2503C111.885 44.7225 112.27 45.2822 112.55 45.9644C112.829 46.629 112.969 47.3811 112.969 48.2031C112.969 49.0251 112.829 49.7772 112.55 50.4419C112.27 51.1065 111.885 51.6837 111.395 52.1559C110.906 52.6281 110.311 52.9954 109.629 53.2403C108.947 53.4852 108.212 53.6251 107.408 53.6251C106.603 53.6251 105.868 53.5026 105.186 53.2403C104.504 52.9954 103.927 52.6281 103.42 52.1559C102.93 51.6837 102.545 51.124 102.265 50.4419C101.986 49.7597 101.846 49.0251 101.846 48.2031ZM104.207 48.2031C104.207 48.6928 104.277 49.1301 104.434 49.5324C104.592 49.9346 104.801 50.2844 105.081 50.5818C105.361 50.8791 105.693 51.1065 106.096 51.2814C106.498 51.4563 106.935 51.5262 107.408 51.5262C107.88 51.5262 108.334 51.4388 108.719 51.2814C109.104 51.124 109.454 50.8791 109.734 50.5818C110.014 50.2844 110.223 49.9346 110.381 49.5324C110.538 49.1301 110.608 48.6928 110.608 48.2031C110.608 47.7134 110.538 47.2936 110.381 46.8738C110.223 46.4716 110.014 46.1218 109.734 45.8244C109.454 45.5271 109.122 45.2997 108.719 45.1248C108.334 44.9674 107.88 44.88 107.408 44.88C106.935 44.88 106.481 44.9674 106.096 45.1248C105.711 45.2822 105.361 45.5271 105.081 45.8244C104.801 46.1218 104.592 46.4716 104.434 46.8738C104.277 47.2761 104.207 47.7309 104.207 48.2031Z" fill="#003B71"/>
<path d="M116.135 43.061H119.213L123.586 50.2145H123.621V43.061H125.895V53.3452H122.921L118.426 46.0168H118.391V53.3452H116.118V43.061H116.135Z" fill="#003B71"/>
<path d="M129.06 48.2031C129.06 47.3811 129.2 46.629 129.48 45.9644C129.76 45.2997 130.145 44.7225 130.635 44.2503C131.124 43.7781 131.719 43.4283 132.401 43.1659C133.083 42.921 133.818 42.7811 134.622 42.7811C135.427 42.7811 136.161 42.9036 136.844 43.1659C137.526 43.4283 138.103 43.7781 138.61 44.2503C139.1 44.7225 139.485 45.2822 139.764 45.9644C140.044 46.629 140.184 47.3811 140.184 48.2031C140.184 49.0251 140.044 49.7772 139.764 50.4419C139.485 51.1065 139.1 51.6837 138.61 52.1559C138.12 52.6281 137.526 52.9954 136.844 53.2403C136.161 53.4852 135.427 53.6251 134.622 53.6251C133.818 53.6251 133.083 53.5026 132.401 53.2403C131.719 52.9954 131.142 52.6281 130.635 52.1559C130.145 51.6837 129.76 51.124 129.48 50.4419C129.2 49.7597 129.06 49.0251 129.06 48.2031ZM131.404 48.2031C131.404 48.6928 131.474 49.1301 131.631 49.5324C131.789 49.9346 131.999 50.2844 132.279 50.5818C132.558 50.8791 132.891 51.1065 133.293 51.2814C133.695 51.4563 134.133 51.5262 134.605 51.5262C135.077 51.5262 135.532 51.4388 135.917 51.2814C136.301 51.124 136.651 50.8791 136.931 50.5818C137.211 50.2844 137.421 49.9346 137.578 49.5324C137.736 49.1301 137.806 48.6928 137.806 48.2031C137.806 47.7134 137.736 47.2936 137.578 46.8738C137.421 46.4716 137.211 46.1218 136.931 45.8244C136.651 45.5271 136.319 45.2997 135.917 45.1248C135.532 44.9674 135.077 44.88 134.605 44.88C134.133 44.88 133.678 44.9674 133.293 45.1248C132.908 45.2822 132.558 45.5271 132.279 45.8244C131.999 46.1218 131.789 46.4716 131.631 46.8738C131.474 47.2761 131.404 47.7309 131.404 48.2031Z" fill="#003B71"/>
<path d="M143.332 43.061H146.761L149.122 49.7772H149.157L151.535 43.061H154.946V53.3452H152.672V45.4572H152.637L149.926 53.3452H148.195L145.589 45.4572H145.554V53.3452H143.28V43.061H143.332Z" fill="#003B71"/>
<path d="M158.654 43.061H160.928V53.3452H158.654V43.061Z" fill="#003B71"/>
<path d="M171.352 45.737C171.124 45.4746 170.862 45.2647 170.53 45.1073C170.197 44.9674 169.83 44.8974 169.41 44.8974C168.991 44.8974 168.588 44.9849 168.221 45.1423C167.854 45.2997 167.539 45.5446 167.277 45.8419C167.014 46.1393 166.804 46.4891 166.647 46.8913C166.49 47.2936 166.42 47.7484 166.42 48.2206C166.42 48.6928 166.49 49.1476 166.647 49.5498C166.804 49.9521 166.997 50.3019 167.259 50.5993C167.521 50.8966 167.836 51.124 168.186 51.2989C168.536 51.4563 168.921 51.5437 169.323 51.5437C169.795 51.5437 170.197 51.4388 170.565 51.2464C170.915 51.054 171.212 50.7742 171.457 50.4244L173.346 51.8411C172.908 52.4532 172.349 52.908 171.684 53.1878C171.02 53.4677 170.32 53.6251 169.62 53.6251C168.816 53.6251 168.081 53.5026 167.399 53.2403C166.717 52.9954 166.14 52.6281 165.633 52.1559C165.143 51.6837 164.758 51.124 164.478 50.4419C164.198 49.7597 164.058 49.0251 164.058 48.2031C164.058 47.3811 164.198 46.629 164.478 45.9644C164.758 45.2997 165.143 44.7225 165.633 44.2503C166.122 43.7781 166.717 43.4283 167.399 43.1659C168.081 42.921 168.816 42.7811 169.62 42.7811C169.918 42.7811 170.215 42.8161 170.53 42.8686C170.845 42.921 171.159 43.0085 171.457 43.1309C171.754 43.2534 172.051 43.4108 172.331 43.6032C172.611 43.7956 172.856 44.0404 173.083 44.3203L171.334 45.737H171.352Z" fill="#003B71"/>
<path d="M182.126 43.061H185.536C186.359 43.061 187.146 43.1484 187.88 43.3408C188.615 43.5332 189.262 43.8306 189.822 44.2328C190.381 44.6351 190.819 45.1773 191.133 45.8419C191.466 46.5066 191.623 47.2936 191.623 48.2381C191.623 49.0776 191.466 49.8122 191.151 50.4419C190.836 51.0715 190.416 51.6137 189.874 52.0335C189.349 52.4707 188.72 52.7856 188.02 53.0129C187.32 53.2403 186.586 53.3452 185.816 53.3452H182.108V43.061H182.126ZM184.4 51.2639H185.571C186.096 51.2639 186.586 51.2114 187.041 51.1065C187.495 51.0016 187.88 50.8267 188.212 50.5818C188.545 50.3369 188.807 50.0046 188.982 49.6023C189.174 49.2001 189.262 48.7103 189.262 48.1332C189.262 47.6259 189.174 47.1887 188.982 46.8214C188.79 46.4541 188.545 46.1393 188.212 45.8944C187.898 45.6495 187.513 45.4746 187.093 45.3522C186.673 45.2298 186.201 45.1773 185.729 45.1773H184.4V51.2814V51.2639Z" fill="#003B71"/>
<path d="M194.876 43.061H201.872V45.1598H197.15V47.0837H201.61V49.1826H197.15V51.2814H202.135V53.3802H194.876V43.096V43.061Z" fill="#003B71"/>
<path d="M204.566 43.061H207.154L209.69 49.8122H209.725L212.314 43.061H214.745L210.495 53.3452H208.676L204.566 43.061Z" fill="#003B71"/>
<path d="M217.526 43.061H224.522V45.1598H219.8V47.0837H224.26V49.1826H219.8V51.2814H224.785V53.3802H217.526V43.096V43.061Z" fill="#003B71"/>
<path d="M228.318 43.061H230.591V51.2639H234.789V53.3627H228.318V43.0785V43.061Z" fill="#003B71"/>
<path d="M237.115 48.2031C237.115 47.3811 237.255 46.629 237.535 45.9644C237.815 45.2997 238.2 44.7225 238.689 44.2503C239.179 43.7781 239.774 43.4283 240.456 43.1659C241.138 42.921 241.873 42.7811 242.677 42.7811C243.482 42.7811 244.216 42.9036 244.898 43.1659C245.58 43.4283 246.158 43.7781 246.665 44.2503C247.155 44.7225 247.539 45.2822 247.819 45.9644C248.099 46.629 248.239 47.3811 248.239 48.2031C248.239 49.0251 248.099 49.7772 247.819 50.4419C247.539 51.1065 247.155 51.6837 246.665 52.1559C246.175 52.6281 245.58 52.9954 244.898 53.2403C244.216 53.4852 243.482 53.6251 242.677 53.6251C241.873 53.6251 241.138 53.5026 240.456 53.2403C239.774 52.9954 239.197 52.6281 238.689 52.1559C238.2 51.6837 237.815 51.124 237.535 50.4419C237.255 49.7597 237.115 49.0251 237.115 48.2031ZM239.476 48.2031C239.476 48.6928 239.546 49.1301 239.704 49.5324C239.861 49.9346 240.071 50.2844 240.351 50.5818C240.631 50.8791 240.963 51.1065 241.365 51.2814C241.768 51.4563 242.205 51.5262 242.677 51.5262C243.149 51.5262 243.604 51.4388 243.989 51.2814C244.374 51.124 244.723 50.8791 245.003 50.5818C245.283 50.2844 245.493 49.9346 245.65 49.5324C245.808 49.1301 245.878 48.6928 245.878 48.2031C245.878 47.7134 245.808 47.2936 245.65 46.8738C245.493 46.4716 245.283 46.1218 245.003 45.8244C244.723 45.5271 244.391 45.2997 243.989 45.1248C243.604 44.9674 243.149 44.88 242.677 44.88C242.205 44.88 241.75 44.9674 241.365 45.1248C240.981 45.2822 240.631 45.5271 240.351 45.8244C240.071 46.1218 239.861 46.4716 239.704 46.8738C239.546 47.2761 239.476 47.7309 239.476 48.2031Z" fill="#003B71"/>
<path d="M251.387 43.061H255.218C255.742 43.061 256.249 43.1135 256.722 43.2009C257.194 43.2884 257.614 43.4633 257.964 43.7081C258.313 43.953 258.593 44.2678 258.803 44.6701C259.013 45.0724 259.118 45.5796 259.118 46.1917C259.118 46.8039 259.013 47.2936 258.821 47.6959C258.628 48.0982 258.366 48.4305 258.016 48.6754C257.684 48.9202 257.281 49.0951 256.809 49.2001C256.337 49.305 255.847 49.3575 255.305 49.3575H253.643V53.3627H251.37V43.0785L251.387 43.061ZM253.661 47.4161H255.165C255.375 47.4161 255.567 47.3986 255.76 47.3636C255.952 47.3286 256.11 47.2586 256.267 47.1712C256.424 47.0837 256.547 46.9613 256.634 46.7864C256.722 46.629 256.774 46.4191 256.774 46.1743C256.774 45.9119 256.722 45.702 256.599 45.5446C256.477 45.3872 256.319 45.2648 256.127 45.1773C255.935 45.0899 255.725 45.0374 255.497 45.0024C255.27 44.9849 255.043 44.9674 254.833 44.9674H253.678V47.4161H253.661Z" fill="#003B71"/>
<path d="M262.179 43.061H265.607L267.968 49.7772H268.003L270.382 43.061H273.792V53.3452H271.518V45.4572H271.483L268.772 53.3452H267.041L264.435 45.4572H264.4V53.3452H262.126V43.061H262.179Z" fill="#003B71"/>
<path d="M277.623 43.061H284.619V45.1598H279.896V47.0837H284.356V49.1826H279.896V51.2814H284.881V53.3802H277.623V43.096V43.061Z" fill="#003B71"/>
<path d="M288.309 43.061H291.387L295.76 50.2145H295.795V43.061H298.069V53.3452H295.095L290.6 46.0168H290.565V53.3452H288.292V43.061H288.309Z" fill="#003B71"/>
<path d="M303.788 45.0724H300.85V43.061H308.983V45.0724H306.044V53.3627H303.771V45.0724H303.788Z" fill="#003B71"/>
<path d="M26.5327 36.1348C19.0119 33.5638 10.3018 31.8322 0 30.8178C0 31.0452 0 31.2551 0 31.4824C0 32.8292 0.0874512 34.141 0.262354 35.4527C7.32841 36.3447 13.9397 37.7265 20.0613 39.6154C22.0377 38.4436 24.189 37.2717 26.5677 36.1348H26.5327Z" fill="#003B71"/>
<path d="M38.1637 41.207C37.0793 40.6298 35.9599 40.0527 34.7706 39.4755C33.7037 38.9508 32.5843 38.4611 31.4649 37.9888C30.3281 38.4611 29.2262 38.9508 28.1593 39.4755C26.97 40.0527 25.8506 40.6298 24.7662 41.207C27.0749 42.064 29.3136 42.991 31.4649 44.0055C33.6162 42.991 35.855 42.064 38.1637 41.207Z" fill="#003B71"/>
<path d="M0.961945 39.3006C1.99387 43.3233 3.79536 47.0313 6.19153 50.267C8.48275 47.9058 11.631 45.1423 15.8286 42.2739C11.4036 41.0671 6.43639 40.0352 0.961945 39.3006Z" fill="#003B71"/>
<path d="M62.685 35.4527C62.8424 34.1584 62.9473 32.8292 62.9473 31.4824C62.9473 31.2551 62.9473 31.0277 62.9473 30.8178C52.6281 31.8322 43.918 33.5813 36.4146 36.1348C38.7758 37.2717 40.9271 38.4436 42.921 39.6154C49.0251 37.7265 55.6539 36.3447 62.72 35.4527H62.685Z" fill="#003B71"/>
<path d="M47.1012 42.2739C51.3163 45.1423 54.4471 47.9058 56.7383 50.267C59.1345 47.0313 60.9359 43.3233 61.9679 39.3006C56.4759 40.0352 51.5262 41.0671 47.1012 42.2739Z" fill="#003B71"/>
<path d="M31.4649 33.9835C40.1051 30.5554 50.2669 28.3167 62.6325 27.1099C60.5162 11.7884 47.3635 0 31.4649 0C15.5663 0 2.41361 11.7884 0.297295 27.1099C12.6629 28.3167 22.8247 30.5554 31.4649 33.9835ZM31.4649 19.9913C37.3766 19.9913 42.3963 23.0346 44.4077 27.3198C39.7553 28.3867 35.4527 29.6634 31.4649 31.1851C27.4771 29.6634 23.1745 28.3867 18.5221 27.3198C20.5335 23.0346 25.5707 19.9913 31.4649 19.9913Z" fill="#003B71"/>
<path d="M31.465 48.1332C23.9442 51.8761 18.9944 55.9163 16.0211 58.9071C20.586 61.4782 25.8506 62.9649 31.465 62.9649C37.0793 62.9649 42.3439 61.4957 46.9088 58.9071C43.918 55.9163 38.9858 51.8761 31.465 48.1332Z" fill="#003B71"/>
<path d="M27.1798 46.1742C25.116 45.2997 22.8947 44.4602 20.4986 43.6731C15.0241 47.0662 11.1938 50.4069 8.58772 53.1179C9.882 54.4821 11.2987 55.7414 12.8204 56.8608C15.7587 53.8 20.3587 49.8997 27.1624 46.1742H27.1798Z" fill="#003B71"/>
<path d="M42.4313 43.6731C40.0352 44.4602 37.8139 45.2997 35.7501 46.1742C42.5538 49.8997 47.1537 53.8 50.0921 56.8608C51.6137 55.7414 53.0304 54.4821 54.3247 53.1179C51.7361 50.4069 47.8883 47.0662 42.4138 43.6731H42.4313Z" fill="#003B71"/>
</svg>
